<svg width="26" height="26" viewBox="0 0 26 26" fill="none" xmlns="http://www.w3.org/2000/svg">
<path d="M6.12857 4.22501V8.60119C5.70038 8.52742 5.26498 8.49042 4.82857 8.49069C2.04785 8.49069 0 10.2717 0 13.1626C0 15.4637 2.81688 16.0572 4.57229 17.0071C5.29268 17.3999 5.9255 17.8701 6.50215 18.3198L6.51062 18.3265L6.51921 18.333C7.53344 19.111 7.89286 19.512 7.89286 19.8657V20.0017C7.60546 20.2935 7.42857 20.6891 7.42857 21.125V24.375C7.42857 25.2725 8.17688 26 9.1 26H22.4714C23.3945 26 24.1429 25.2725 24.1429 24.375V21.125C24.1429 20.6891 23.966 20.2935 23.6786 20.0017V19.8657C23.6786 18.4088 26 16.4564 26 13.4063V12.3247C26 9.14872 23.7565 7.30749 20.7103 7.2496C19.6765 6.61574 18.3433 6.3106 17.0662 6.43786C16.6605 6.25699 16.2302 6.1217 15.7857 6.03521V4.22501C15.7857 1.91776 13.6045 0 10.9571 0C8.33979 0 6.12857 1.93482 6.12857 4.22501V4.22501ZM13 4.22501V8.84743C13.8513 8.19555 15.4854 8.11542 16.5431 9.0988C17.6832 8.52868 19.1909 9.01313 19.6552 9.75515C21.9261 9.42385 23.2143 10.2668 23.2143 12.3247V13.4063C23.2143 15.7164 21.13 17.3271 20.9117 19.5H10.6537C10.4817 18.2184 9.42204 17.3182 8.35569 16.5001C7.62154 15.9276 6.88739 15.3969 6.04152 14.9361C4.68418 14.2008 2.78571 13.6091 2.78571 13.1625C2.78571 11.9755 3.29643 10.9281 4.82857 10.9281C6.87143 10.9281 7.90882 12.2688 8.91429 12.2688V4.22501C8.91429 3.28936 9.87187 2.4375 10.9571 2.4375C12.0584 2.4375 13 3.26143 13 4.22501ZM20.4286 21.5313C21.1978 21.5313 21.8214 22.0769 21.8214 22.75C21.8214 23.4232 21.1978 23.9688 20.4286 23.9688C19.6593 23.9688 19.0357 23.4232 19.0357 22.75C19.0357 22.0769 19.6593 21.5313 20.4286 21.5313Z" fill="#EEEEEE"/>
</svg>
